<svg version="1.1" xmlns="http://www.w3.org/2000/svg" viewBox="0 0 572 560" width="1144" height="1120">
  <!-- svg-source:excalidraw -->
  
  <defs>
    <style class="style-fonts">
      @font-face {
        font-family: "Virgil";
        src: url("https://excalidraw.com/Virgil.woff2");
      }
      @font-face {
        font-family: "Cascadia";
        src: url("https://excalidraw.com/Cascadia.woff2");
      }
    </style>
  </defs>
  <g stroke-linecap="round" transform="translate(76 90) rotate(0 208.5000000000001 191)"><path d="M32 0 M32 0 C126.75 -2.93, 226.52 -3.65, 385 0 M32 0 C140.66 5.32, 248.12 5.37, 385 0 M385 0 C409.45 0.18, 413.74 14.64, 417 32 M385 0 C401.82 3.81, 413.5 10, 417 32 M417 32 C422.71 158.72, 418.54 286.19, 417 350 M417 32 C419.75 119.85, 419.56 208.15, 417 350 M417 350 C418.09 374.02, 406.06 379.97, 385 382 M417 350 C421 367.3, 405.06 383.69, 385 382 M385 382 C291.74 387.09, 194.4 385.1, 32 382 M385 382 C294.03 386.3, 203.27 385.18, 32 382 M32 382 C9.94 384.63, 0.99 368.61, 0 350 M32 382 C8.72 383.56, -1.92 366.97, 0 350 M0 350 C1.09 252.22, 0.3 156.8, 0 32 M0 350 C2.31 232.05, 3.49 112.91, 0 32 M0 32 C-1.55 11.28, 8.85 -3.16, 32 0 M0 32 C4.22 6.72, 6.61 3.87, 32 0" stroke="#000000" stroke-width="1" fill="none"></path></g><g stroke-linecap="round" transform="translate(10 10) rotate(0 276 270)"><path d="M290.69 1.75 C311.56 -1.13, 333.39 6.51, 353.76 12.02 C374.13 17.52, 394.93 24.52, 412.89 34.77 C430.85 45.03, 446.52 59.21, 461.53 73.54 C476.53 87.88, 491.06 103.95, 502.93 120.79 C514.8 137.62, 524.64 155.15, 532.77 174.55 C540.89 193.95, 548.5 216.26, 551.67 237.18 C554.83 258.09, 554.18 279.85, 551.75 300.03 C549.32 320.2, 544.02 339, 537.1 358.22 C530.18 377.45, 521.67 398.03, 510.21 415.39 C498.76 432.75, 483.75 447.94, 468.4 462.38 C453.04 476.82, 436.29 491.12, 418.1 502.03 C399.92 512.95, 379.69 521.41, 359.29 527.86 C338.88 534.3, 317.04 539.44, 295.66 540.7 C274.27 541.95, 251.7 539.28, 230.96 535.39 C210.23 531.5, 190.89 525.06, 171.25 517.34 C151.61 509.62, 130.66 500.84, 113.1 489.09 C95.55 477.34, 79.41 462.53, 65.92 446.83 C52.42 431.12, 41.53 413.65, 32.15 394.85 C22.77 376.05, 15.01 354.47, 9.64 334.02 C4.28 313.57, 0.44 292.42, -0.04 272.16 C-0.53 251.9, 2.04 232.51, 6.73 212.46 C11.41 192.4, 18.69 171.02, 28.08 151.84 C37.48 132.65, 49.74 113.23, 63.12 97.35 C76.5 81.47, 91.49 69.12, 108.37 56.55 C125.24 43.98, 145.06 30.46, 164.37 21.92 C183.67 13.39, 200.71 9.02, 224.21 5.32 C247.71 1.62, 289.01 -1.06, 305.37 -0.28 C321.73 0.5, 322.81 4.9, 322.36 9.99 M71.56 89.52 C80.8 72.31, 97.14 60.62, 114.44 49.36 C131.74 38.1, 155 29.91, 175.36 21.98 C195.72 14.05, 215.88 5.52, 236.62 1.79 C257.36 -1.94, 279.28 -2.81, 299.8 -0.4 C320.32 2.01, 340.11 9.97, 359.77 16.24 C379.42 22.5, 398.81 26.84, 417.71 37.19 C436.61 47.53, 457.29 63.41, 473.18 78.3 C489.07 93.19, 501.99 108.64, 513.07 126.53 C524.14 144.42, 532.9 165.56, 539.63 185.67 C546.36 205.78, 551.5 227.13, 553.44 247.18 C555.38 267.24, 554.68 285.98, 551.29 306.02 C547.9 326.06, 541.69 347.29, 533.1 367.43 C524.51 387.56, 511.96 409.63, 499.75 426.83 C487.54 444.03, 474.88 456.76, 459.84 470.62 C444.8 484.48, 428.64 500.48, 409.52 510 C390.41 519.53, 365.9 522.43, 345.14 527.77 C324.39 533.12, 305.52 540.85, 284.98 542.09 C264.44 543.32, 243.23 539.35, 221.9 535.17 C200.57 531, 176.27 525.55, 157.01 517.04 C137.76 508.52, 122.1 496.8, 106.35 484.08 C90.59 471.36, 76 457.74, 62.49 440.71 C48.98 423.67, 34.78 400.89, 25.3 381.89 C15.82 362.89, 9.49 346.21, 5.6 326.69 C1.71 307.18, 1.14 285.58, 1.93 264.78 C2.73 243.98, 5.47 222.3, 10.34 201.89 C15.22 181.47, 21.74 160.56, 31.2 142.3 C40.65 124.04, 59.93 100.35, 67.07 92.33 C74.2 84.32, 70.48 91.22, 74 94.2" stroke="#000000" stroke-width="1" fill="none"></path></g><g stroke-linecap="round" transform="translate(81 94) rotate(0 206.5 191.49999999999994)"><path d="M293.02 16.93 C310.17 21.22, 327.55 35.11, 341.65 46.74 C355.74 58.37, 367.64 72.58, 377.58 86.71 C387.52 100.85, 395.74 114.98, 401.3 131.54 C406.87 148.1, 410 168.32, 410.97 186.06 C411.94 203.79, 411.08 221.55, 407.13 237.96 C403.19 254.37, 396.07 269.96, 387.31 284.51 C378.55 299.06, 367.8 313.22, 354.57 325.26 C341.34 337.3, 324.56 348.1, 307.93 356.77 C291.3 365.43, 272.58 373.18, 254.79 377.25 C236.99 381.33, 219.63 381.43, 201.18 381.21 C182.73 381, 162.01 380.81, 144.11 375.96 C126.21 371.11, 109.49 361.45, 93.77 352.11 C78.05 342.77, 62.17 332.67, 49.81 319.94 C37.45 307.22, 27.48 291.39, 19.62 275.74 C11.76 260.09, 5.79 243.03, 2.66 226.03 C-0.47 209.04, -1.22 191.03, 0.84 173.78 C2.89 156.54, 8.56 139.08, 15 122.57 C21.43 106.06, 28.18 88.57, 39.46 74.73 C50.73 60.88, 67.59 49.42, 82.65 39.51 C97.71 29.6, 112.96 21.57, 129.83 15.27 C146.69 8.97, 165.48 3.89, 183.85 1.7 C202.21 -0.49, 214.7 -4.82, 240.01 2.12 C265.32 9.07, 314.78 31.44, 335.7 43.38 C356.62 55.33, 368.04 71.65, 365.52 73.81 M262.78 4.43 C280.65 6.53, 295.74 20.73, 311.2 29.53 C326.66 38.34, 342.22 44.89, 355.54 57.26 C368.85 69.63, 382.21 88.44, 391.08 103.75 C399.95 119.07, 405.44 132.33, 408.75 149.16 C412.07 165.98, 412.37 186.76, 410.99 204.69 C409.6 222.63, 405.99 241.2, 400.44 256.76 C394.89 272.33, 388.45 284.57, 377.69 298.08 C366.93 311.59, 350.8 326.39, 335.86 337.82 C320.93 349.25, 304.41 359.82, 288.1 366.67 C271.8 373.53, 255.53 376.8, 238.04 378.94 C220.56 381.08, 201.66 381.04, 183.21 379.51 C164.75 377.99, 144.91 375.96, 127.34 369.8 C109.77 363.64, 92.37 353.58, 77.79 342.57 C63.21 331.55, 50.45 318.32, 39.84 303.72 C29.23 289.12, 20.25 271.67, 14.11 254.98 C7.97 238.28, 4.98 219.93, 2.99 203.54 C1 187.16, -0.53 172.72, 2.18 156.66 C4.88 140.6, 10.71 122.61, 19.22 107.2 C27.73 91.78, 40.5 77.65, 53.24 64.19 C65.99 50.74, 80.2 35.96, 95.67 26.45 C111.14 16.93, 127.5 11.29, 146.06 7.1 C164.62 2.91, 188.34 1.66, 207.02 1.32 C225.7 0.97, 249.63 3.89, 258.13 5.01 C266.62 6.13, 258.11 4.57, 258.01 8.02" stroke="#000000" stroke-width="1" fill="none"></path></g><g stroke-linecap="round" transform="translate(70.00000000000023 80) rotate(0 217.9999999999999 206)"><path d="M272.5 51.75 M272.5 51.75 C308.65 88.76, 347.44 117.86, 381.5 155.25 M272.5 51.75 C310.05 89.4, 349.49 126.56, 381.5 155.25 M381.5 155.25 C439.5 210.09, 437.43 208.12, 381.5 258.75 M381.5 155.25 C433.54 208.52, 439.09 203.37, 381.5 258.75 M381.5 258.75 C356.92 283.85, 323.35 310.79, 272.5 360.25 M381.5 258.75 C341.44 295.87, 298.31 337.11, 272.5 360.25 M272.5 360.25 C214.01 409.13, 215.94 410.1, 163.5 360.25 M272.5 360.25 C217.96 408.06, 219.94 414.64, 163.5 360.25 M163.5 360.25 C135.4 331.28, 103.87 300.63, 54.5 258.75 M163.5 360.25 C135.94 336.22, 109.66 313.8, 54.5 258.75 M54.5 258.75 C-2.04 205.61, -1.26 206.06, 54.5 155.25 M54.5 258.75 C1.08 207.07, 2.33 204.46, 54.5 155.25 M54.5 155.25 C85.21 120.3, 124.61 88.41, 163.5 51.75 M54.5 155.25 C83.84 127.07, 107.74 105.18, 163.5 51.75 M163.5 51.75 C217.29 -2.02, 219.85 2.18, 272.5 51.75 M163.5 51.75 C213.71 2.64, 215.71 3.25, 272.5 51.75" stroke="#000000" stroke-width="1" fill="none"></path></g></svg>